<!--
    Os atributos width, height e class foram removidos, pois configurados nas
    configurações core da aplicação

    @see  /app/config/blade-icons.php
    @see https://github.com/blade-ui-kit/blade-icons
    @see https://icons.getbootstrap.com/icons/chevron-double-right/
-->

<svg xmlns="http://www.w3.org/2000/svg" fill="currentColor" viewBox="0 0 16 16">

    <path fill-rule="evenodd" d="M3.646 1.646a.5.5 0 0 1 .708 0l6 6a.5.5 0 0 1 0 .708l-6 6a.5.5 0 0 1-.708-.708L9.293 8 3.646 2.354a.5.5 0 0 1 0-.708z"/>


    <path fill-rule="evenodd" d="M7.646 1.646a.5.5 0 0 1 .708 0l6 6a.5.5 0 0 1 0 .708l-6 6a.5.5 0 0 1-.708-.708L13.293 8 7.646 2.354a.5.5 0 0 1 0-.708z"/>

</svg>
